<svg width="22" height="28" viewBox="0 0 22 28" fill="none" xmlns="http://www.w3.org/2000/svg">
<g filter="url(#filter0_d_14216_23992)">
<path d="M15.1667 0C15.6269 0 16 0.373096 16 0.833333V2.5C16 2.96024 15.6269 3.33333 15.1667 3.33333C14.7064 3.33333 14.3333 2.96024 14.3333 2.5V0.833333C14.3333 0.373096 14.7064 0 15.1667 0Z" fill="#777E91"/>
<path d="M15.1667 10C15.6269 10 16 10.3731 16 10.8333V15.8333C16 16.2936 15.6269 16.6667 15.1667 16.6667C14.7064 16.6667 14.3333 16.2936 14.3333 15.8333V10.8333C14.3333 10.3731 14.7064 10 15.1667 10Z" fill="#777E91"/>
<path d="M6.83333 3.33333C7.29357 3.33333 7.66667 3.70643 7.66667 4.16667V10.8333C7.66667 11.2936 7.29357 11.6667 6.83333 11.6667C6.3731 11.6667 6 11.2936 6 10.8333V4.16667C6 3.70643 6.3731 3.33333 6.83333 3.33333Z" fill="#777E91"/>
<path d="M6.83333 15C7.29357 15 7.66667 15.3731 7.66667 15.8333V19.1667C7.66667 19.6269 7.29357 20 6.83333 20C6.3731 20 6 19.6269 6 19.1667V15.8333C6 15.3731 6.3731 15 6.83333 15Z" fill="#777E91"/>
<path fill-rule="evenodd" clip-rule="evenodd" d="M12.6668 4.1665C12.6668 2.78579 13.7861 1.6665 15.1668 1.6665C16.5475 1.6665 17.6668 2.78579 17.6668 4.1665V9.1665C17.6668 10.5472 16.5475 11.6665 15.1668 11.6665C13.7861 11.6665 12.6668 10.5472 12.6668 9.1665V4.1665ZM16.0002 4.1665V9.1665C16.0002 9.62674 15.6271 9.99984 15.1668 9.99984C14.7066 9.99984 14.3335 9.62674 14.3335 9.1665V4.1665C14.3335 3.70627 14.7066 3.33317 15.1668 3.33317C15.6271 3.33317 16.0002 3.70627 16.0002 4.1665Z" fill="#777E91"/>
<path fill-rule="evenodd" clip-rule="evenodd" d="M4.3335 12.4998C4.3335 11.1191 5.45278 9.99984 6.8335 9.99984C8.21421 9.99984 9.3335 11.1191 9.3335 12.4998V14.1665C9.3335 15.5472 8.21421 16.6665 6.8335 16.6665C5.45278 16.6665 4.3335 15.5472 4.3335 14.1665V12.4998ZM7.66683 12.4998V14.1665C7.66683 14.6267 7.29373 14.9998 6.8335 14.9998C6.37326 14.9998 6.00016 14.6267 6.00016 14.1665V12.4998C6.00016 12.0396 6.37326 11.6665 6.8335 11.6665C7.29373 11.6665 7.66683 12.0396 7.66683 12.4998Z" fill="#777E91"/>
</g>
<defs>
<filter id="filter0_d_14216_23992" x="-3" y="0" width="28" height="28" filterUnits="userSpaceOnUse" color-interpolation-filters="sRGB">
<feFlood flood-opacity="0" result="BackgroundImageFix"/>
<feColorMatrix in="SourceAlpha" type="matrix" values="0 0 0 0 0 0 0 0 0 0 0 0 0 0 0 0 0 0 127 0" result="hardAlpha"/>
<feOffset dy="4"/>
<feGaussianBlur stdDeviation="2"/>
<feComposite in2="hardAlpha" operator="out"/>
<feColorMatrix type="matrix" values="0 0 0 0 0 0 0 0 0 0 0 0 0 0 0 0 0 0 0.25 0"/>
<feBlend mode="normal" in2="BackgroundImageFix" result="effect1_dropShadow_14216_23992"/>
<feBlend mode="normal" in="SourceGraphic" in2="effect1_dropShadow_14216_23992" result="shape"/>
</filter>
</defs>
</svg>
