<svg width="424" height="353" viewBox="0 0 424 353" fill="none" xmlns="http://www.w3.org/2000/svg">
<path d="M148.45 346.676C152.202 350.428 157.259 352.549 162.643 352.549C167.863 352.549 172.92 350.428 176.672 346.676L417.292 107.361C421.044 103.609 423.165 98.5524 423.165 93.169C423.165 87.9488 421.044 82.7285 417.292 78.9765L344.535 5.8933C336.705 -1.93704 324.144 -1.93703 316.313 5.73018L162.969 158.259L107.178 102.141C103.426 98.3892 98.3687 96.2685 92.9853 96.2685C87.7651 96.2685 82.708 98.3892 78.9559 102.141L5.87275 174.898C2.12072 178.65 0 183.707 0 189.091C0 194.311 2.12072 199.531 5.87275 203.283L148.45 346.676ZM92.9853 144.556L148.94 200.836C156.77 208.667 169.331 208.667 177.161 200.999L330.506 48.4708L375.041 93.169L162.806 304.262L48.2871 189.091L92.9853 144.556Z" fill="#EE2051"/>
</svg>
