<svg width="800" height="800" viewBox="0 0 800 800" fill="none" xmlns="http://www.w3.org/2000/svg">
<path d="M400 800C620.555 800 800 620.555 800 400C800 179.445 620.555 0 400 0C179.445 0 0 179.445 0 400C0 620.555 179.445 800 400 800ZM400 39.9674C598.532 39.9674 760.033 201.468 760.033 400C760.033 598.532 598.532 760.033 400 760.033C201.468 760.033 39.9674 598.532 39.9674 400C39.9674 201.468 201.468 39.9674 400 39.9674Z" fill="#EE2051"/>
<path d="M336.868 570.31C340.62 574.062 345.677 576.183 351.06 576.183C356.281 576.183 361.338 574.062 365.09 570.31L605.71 330.995C609.462 327.243 611.582 322.186 611.582 316.803C611.582 311.582 609.462 306.362 605.71 302.61L532.953 229.527C525.122 221.697 512.561 221.697 504.731 229.364L351.387 381.892L295.595 325.775C291.843 322.023 286.786 319.902 281.403 319.902C276.183 319.902 271.126 322.023 267.374 325.775L194.29 398.532C190.538 402.284 188.418 407.341 188.418 412.724C188.418 417.945 190.538 423.165 194.29 426.917L336.868 570.31ZM281.403 368.189L337.357 424.47C345.188 432.3 357.749 432.3 365.579 424.633L518.923 272.104L563.458 316.803L351.223 527.896L236.705 412.724L281.403 368.189Z" fill="#EE2051"/>
</svg>
