<svg width="49" height="49" viewBox="0 0 49 49" fill="none" xmlns="http://www.w3.org/2000/svg">
<path d="M22.4058 0.066351C19.8773 0.366847 18.8307 0.574085 17.1624 1.08182C12.7376 2.43923 8.84136 5.0608 5.743 8.76C-0.930387 16.7283 -1.59358 28.3855 4.13683 37.1517C5.13162 38.6645 6.1575 39.8976 7.59788 41.2964C11.2973 44.8817 15.6598 47.0369 20.8514 47.8452C22.5197 48.1042 26.0222 48.0939 27.7424 47.8348C31.7837 47.2235 35.3899 45.7313 38.6126 43.3377C39.8353 42.4259 41.9285 40.4157 42.8922 39.2241C45.7315 35.7114 47.5242 31.5148 48.1253 26.9452C48.2911 25.681 48.2911 22.4067 48.1253 21.1425C47.1823 14.0239 43.3793 7.87924 37.4416 3.94171C34.6438 2.07656 31.1724 0.750238 27.7942 0.263228C26.6647 0.0974368 23.1933 -0.0269063 22.4058 0.066351ZM26.3538 2.59466C30.7475 3.04022 34.8303 4.78102 38.2706 7.66164C44.4051 12.7908 47.1512 21.4326 45.1512 29.3077C44.0528 33.6493 41.5659 37.6698 38.2706 40.426C33.6075 44.3325 27.732 46.1251 21.8669 45.4412C13.463 44.4568 6.56163 38.8925 3.86741 30.9345C3.32856 29.3181 2.95552 27.4736 2.80008 25.5774C2.26123 18.894 5.16271 11.9515 10.2817 7.65128C14.779 3.85881 20.6338 2.02475 26.3538 2.59466Z" fill="#EEEEEE"/>
<path d="M18.8722 18.6971C18.0743 19.008 17.6494 19.2877 17.1002 19.8887C16.323 20.7177 16.0536 21.4223 16.0432 22.5932C16.0329 23.5672 16.2194 24.1993 16.7168 24.9246C16.8722 25.1526 18.4577 26.7898 20.2504 28.572C23.7321 32.0329 23.8254 32.1054 24.644 31.9189C24.9756 31.8464 25.587 31.2765 28.4367 28.4269C32.5091 24.3651 32.5091 24.3651 32.5091 22.5932C32.5091 21.6295 32.478 21.4326 32.2293 20.9145C31.8563 20.1167 31.0687 19.3395 30.1983 18.9354C29.5662 18.6349 29.4211 18.6038 28.4678 18.6038C27.0585 18.6038 26.5507 18.8422 25.245 20.127L24.271 21.0803L23.2969 20.127C22.0534 18.9043 21.4938 18.6246 20.1778 18.5831C19.5664 18.5624 19.1209 18.6038 18.8722 18.6971Z" fill="#EF466F"/>
</svg>
