<svg width="458" height="458" viewBox="0 0 458 458" fill="none" xmlns="http://www.w3.org/2000/svg">
<path d="M179.74 150.07C179.27 150.99 178.18 151.37 177.3 150.92C176.42 150.47 176.09 149.36 176.55 148.45C177.01 147.54 178.11 147.15 178.99 147.6C179.87 148.04 180.21 149.15 179.74 150.07Z" fill="url(#paint0_radial_411_2)"/>
<path d="M228.67 457.34C354.961 457.34 457.34 354.961 457.34 228.67C457.34 102.379 354.961 0 228.67 0C102.379 0 0 102.379 0 228.67C0 354.961 102.379 457.34 228.67 457.34Z" fill="#EE2051"/>
<path d="M180.29 199.7L121.21 165.68L156.19 105.2C156.19 105.2 175.09 78.73 202.03 92.44C202.03 92.44 227.4 102.36 215.27 137.34C214.99 138.13 180.29 199.7 180.29 199.7Z" fill="black"/>
<path d="M151.5 194.72L194 260.67L163.76 242.7L129.72 299.42C129.72 299.42 120.28 307.93 129.72 337.69C129.72 337.69 73.39 278.94 83.79 243.97L104.77 208.14L74 190.24L151.5 194.72Z" fill="black"/>
<path d="M244.45 290.29L244.73 358.45L174.86 358.62C174.86 358.62 142.47 355.59 140.78 325.42C140.78 325.42 136.61 298.49 172.94 291.41C173.77 291.24 244.45 290.29 244.45 290.29Z" fill="black"/>
<path d="M254.59 317.67L290.25 247.78L289.93 282.95L356.05 283.86C356.05 283.86 368.16 287.75 389.15 264.61C389.15 264.61 366.67 342.86 331.22 351.45L289.7 351.32V386.94L254.59 317.67Z" fill="black"/>
<path d="M196.08 81.35C196.08 81.35 220.69 86.95 226.72 98.18L326.45 257.91C326.45 257.91 349.77 282.09 373.94 263.53C398.11 244.96 379.98 218.19 379.98 218.19L303.57 96.02C303.57 96.02 296.23 77.03 256.51 77.03C256.51 77.02 208.6 77.89 196.08 81.35Z" fill="black"/>
<path d="M284.73 78.63C284.79 78.06 293.41 73.75 293.41 73.75C293.41 73.75 298.56 74.15 301.13 78.63C303.71 83.1 302.22 88.11 302.22 88.11L292.75 93.62C292.76 93.62 283.65 89.74 284.73 78.63Z" fill="white"/>
<path d="M287.12 83.83L274.26 91.72L271.4 87.92L255.32 97.43L258.23 101.69L254.92 103.7L256.72 109.11L261.18 106.54L270.51 120.04L286.01 111.34L282.38 105.9L282.96 93.34L290.87 88.26C290.86 88.26 292.61 83.63 287.12 83.83Z" fill="white"/>
<path d="M250 98.6C250 98.6 259.34 104.19 259.49 114.76L249.39 120.83C249.39 120.83 239.9 117.72 239.13 105.44L250 98.6Z" fill="white"/>
<path d="M272.07 116.01C272.07 116.5 271.68 116.89 271.2 116.89C270.71 116.89 270.33 116.5 270.33 116.01C270.33 115.54 270.71 115.14 271.2 115.14C271.68 115.15 272.07 115.54 272.07 116.01Z" fill="#817E7A"/>
<path d="M260.32 97.98C260.32 98.46 259.94 98.85 259.45 98.85C258.96 98.85 258.57 98.46 258.57 97.98C258.57 97.5 258.96 97.1 259.45 97.1C259.93 97.1 260.32 97.49 260.32 97.98Z" fill="#817E7A"/>
<path d="M271.75 91.59C271.75 92.07 271.37 92.46 270.88 92.46C270.39 92.46 270 92.07 270 91.59C270 91.11 270.39 90.72 270.88 90.72C271.37 90.71 271.75 91.11 271.75 91.59Z" fill="#817E7A"/>
<path d="M282.73 110.36C282.73 110.84 282.35 111.23 281.86 111.23C281.37 111.23 280.99 110.84 280.99 110.36C280.99 109.88 281.37 109.48 281.86 109.48C282.35 109.48 282.73 109.88 282.73 110.36Z" fill="#817E7A"/>
<path d="M343.88 244.37C343.88 244.37 341.72 231.55 332.95 228.96L324.02 235.28C324.02 235.28 325.03 246.51 334.1 251.12L343.88 244.37Z" fill="white"/>
<path d="M377.17 200.58C377.17 200.58 386.23 202.73 386.67 214.97L378.46 220C378.46 220 369.11 217.13 368.24 206.62L377.17 200.58Z" fill="white"/>
<path d="M347.69 204.47L331.93 214.27L342.1 229.35L337.05 232.27L340.37 237.07L345.5 233.73L347.56 236.94L362.05 227.12L360.29 224.05L376.02 214.61C376.02 214.61 378.15 213.19 376.37 211.03C374.51 208.77 372.71 210.51 372.71 210.51L363.61 215.83L351.99 212.21L347.69 204.47Z" fill="white"/>
<path d="M337.35 215.23C337.38 215.71 337.01 216.13 336.53 216.15C336.06 216.18 335.64 215.81 335.62 215.32C335.6 214.84 335.97 214.43 336.44 214.41C336.91 214.38 337.33 214.75 337.35 215.23Z" fill="#817E7A"/>
<path d="M347.69 209C347.72 209.49 347.35 209.89 346.87 209.91C346.39 209.94 345.97 209.58 345.96 209.1C345.93 208.61 346.3 208.2 346.78 208.19C347.26 208.16 347.66 208.53 347.69 209Z" fill="#817E7A"/>
<path d="M359.42 226.59C359.44 227.07 359.08 227.48 358.59 227.5C358.12 227.53 357.7 227.16 357.68 226.68C357.65 226.21 358.03 225.8 358.5 225.76C358.99 225.73 359.4 226.11 359.42 226.59Z" fill="#817E7A"/>
<path d="M349.65 233.41C349.67 233.89 349.31 234.3 348.82 234.32C348.35 234.34 347.93 233.98 347.91 233.49C347.88 233.02 348.26 232.6 348.73 232.58C349.21 232.55 349.62 232.92 349.65 233.41Z" fill="#817E7A"/>
<path d="M175.82 126.6C175.35 127.52 174.26 127.9 173.38 127.45C172.5 127 172.17 125.89 172.63 124.98C173.09 124.07 174.19 123.68 175.07 124.13C175.95 124.57 176.28 125.68 175.82 126.6Z" fill="white"/>
<path d="M188.42 133.02C187.95 133.94 186.86 134.32 185.98 133.87C185.1 133.42 184.77 132.31 185.23 131.4C185.7 130.48 186.79 130.1 187.67 130.55C188.56 131 188.89 132.1 188.42 133.02Z" fill="white"/>
<path d="M166.397 142.657C165.927 143.577 164.837 143.957 163.957 143.507C163.077 143.057 162.747 141.947 163.207 141.037C163.667 140.127 164.767 139.737 165.647 140.187C166.537 140.627 166.867 141.737 166.397 142.657Z" fill="white"/>
<path d="M178.397 149.657C177.927 150.577 176.837 150.957 175.957 150.507C175.077 150.057 174.747 148.947 175.207 148.037C175.667 147.127 176.767 146.737 177.647 147.187C178.537 147.627 178.867 148.737 178.397 149.657Z" fill="white"/>
<path d="M203.583 333.714C202.551 333.76 201.681 333.001 201.637 332.014C201.593 331.026 202.394 330.19 203.413 330.14C204.445 330.093 205.314 330.852 205.358 331.84C205.408 332.836 204.615 333.667 203.583 333.714Z" fill="white"/>
<path d="M185.731 319.267C184.699 319.314 183.829 318.554 183.785 317.567C183.741 316.58 184.542 315.744 185.56 315.693C186.579 315.643 187.462 316.406 187.506 317.393C187.564 318.385 186.763 319.22 185.731 319.267Z" fill="white"/>
<path d="M203.584 319.267C202.552 319.314 201.682 318.554 201.638 317.567C201.594 316.58 202.395 315.744 203.414 315.693C204.432 315.643 205.315 316.406 205.359 317.393C205.417 318.385 204.616 319.22 203.584 319.267Z" fill="white"/>
<path d="M185.584 333.234C184.552 333.281 183.682 332.521 183.638 331.534C183.594 330.547 184.395 329.711 185.414 329.66C186.432 329.61 187.315 330.373 187.359 331.36C187.417 332.351 186.616 333.187 185.584 333.234Z" fill="white"/>
<defs>
<radialGradient id="paint0_radial_411_2" cx="0" cy="0" r="1" gradientUnits="userSpaceOnUse" gradientTransform="translate(603.806 133.546) rotate(26.4459) scale(0.493305 0.507108)">
<stop offset="0.4106" stop-color="white"/>
<stop offset="0.7878" stop-color="#190C15"/>
<stop offset="1" stop-color="#190C15"/>
</radialGradient>
</defs>
</svg>
